{
  "asset": {
    "version": "2.0",
    "generator": "GLTFExporter"
  },
  "scenes": [
    {
      "nodes": [
        0,
        4
      ]
    }
  ],
  "scene": 0,
  "nodes": [
    {
      "matrix": [
        1,
        0,
        0,
        0,
        0,
        1,
        0,
        0,
        0,
        0,
        1,
        0,
        -8,
        12,
        8,
        1
      ],
      "extensions": {
        "KHR_lights_punctual": {
          "light": 0
        }
      }
    },
    {
      "matrix": [
        0.009999999776482582,
        0,
        0,
        0,
        0,
        -1.3435885348189617e-9,
        0.009999999434197101,
        0,
        0,
        -0.009999999434197101,
        -1.3435885348189617e-9,
        0,
        0,
        0,
        0,
        1
      ],
      "name": "Metal",
      "extras": {
        "name": "Metal"
      },
      "mesh": 0
    },
    {
      "matrix": [
        0.009999999776482582,
        0,
        0,
        0,
        0,
        -1.3435885348189617e-9,
        0.009999999434197101,
        0,
        0,
        -0.009999999434197101,
        -1.3435885348189617e-9,
        0,
        0,
        0,
        0,
        1
      ],
      "name": "Pillow",
      "extras": {
        "name": "Pillow"
      },
      "mesh": 1
    },
    {
      "matrix": [
        0.009999999776482582,
        0,
        0,
        0,
        0,
        -1.3435885348189617e-9,
        0.009999999434197101,
        0,
        0,
        -0.009999999434197101,
        -1.3435885348189617e-9,
        0,
        0,
        0,
        0,
        1
      ],
      "name": "Wood",
      "extras": {
        "name": "Wood"
      },
      "mesh": 2
    },
    {
      "matrix": [
        -3,
        0,
        8.41629461719794e-14,
        0,
        0,
        3,
        0,
        0,
        -8.41629461719794e-14,
        0,
        -3,
        0,
        0,
        -1,
        0,
        1
      ],
      "name": "Scene",
      "children": [
        1,
        2,
        3
      ]
    }
  ],
  "extensions": {
    "KHR_lights_punctual": {
      "lights": [
        {
          "color": [
            1,
            1,
            1
          ],
          "intensity": 0.54,
          "type": "directional"
        }
      ]
    }
  },
  "bufferViews": [
    {
      "buffer": 0,
      "byteOffset": 0,
      "byteLength": 53064,
      "target": 34962,
      "byteStride": 12
    },
    {
      "buffer": 0,
      "byteOffset": 53064,
      "byteLength": 53064,
      "target": 34962,
      "byteStride": 12
    },
    {
      "buffer": 0,
      "byteOffset": 106128,
      "byteLength": 35376,
      "target": 34962,
      "byteStride": 8
    },
    {
      "buffer": 0,
      "byteOffset": 141504,
      "byteLength": 46320,
      "target": 34963
    },
    {
      "buffer": 0,
      "byteOffset": 187824,
      "byteLength": 89088,
      "target": 34962,
      "byteStride": 12
    },
    {
      "buffer": 0,
      "byteOffset": 276912,
      "byteLength": 89088,
      "target": 34962,
      "byteStride": 12
    },
    {
      "buffer": 0,
      "byteOffset": 366000,
      "byteLength": 59392,
      "target": 34962,
      "byteStride": 8
    },
    {
      "buffer": 0,
      "byteOffset": 425392,
      "byteLength": 84672,
      "target": 34963
    },
    {
      "buffer": 0,
      "byteOffset": 510064,
      "byteLength": 14088,
      "target": 34962,
      "byteStride": 12
    },
    {
      "buffer": 0,
      "byteOffset": 524152,
      "byteLength": 14088,
      "target": 34962,
      "byteStride": 12
    },
    {
      "buffer": 0,
      "byteOffset": 538240,
      "byteLength": 9392,
      "target": 34962,
      "byteStride": 8
    },
    {
      "buffer": 0,
      "byteOffset": 547632,
      "byteLength": 11088,
      "target": 34963
    }
  ],
  "buffers": [
    {
      "byteLength": 558720,
      "uri": "data:application/octet-stream;base64,"
    }
  ],
  "accessors": [
    {
      "bufferView": 0,
      "componentType": 5126,
      "count": 4422,
      "max": [
        19.879562377929688,
        3.743040084838867,
        -9.666786193847656
      ],
      "min": [
        -19.88313102722168,
        -23.752235412597656,
        -30.67526626586914
      ],
      "type": "VEC3"
    },
    {
      "bufferView": 1,
      "componentType": 5126,
      "count": 4422,
      "max": [
        0.9999749064445496,
        0.9999999403953552,
        0.9999995827674866
      ],
      "min": [
        -0.9999749064445496,
        -0.9999998807907104,
        -0.9999996423721313
      ],
      "type": "VEC3"
    },
    {
      "bufferView": 2,
      "componentType": 5126,
      "count": 4422,
      "max": [
        1.0004444122314453,
        1
      ],
      "min": [
        -0.0013633966445922852,
        0
      ],
      "type": "VEC2"
    },
    {
      "bufferView": 3,
      "componentType": 5123,
      "count": 23160,
      "max": [
        4421
      ],
      "min": [
        0
      ],
      "type": "SCALAR"
    },
    {
      "bufferView": 4,
      "componentType": 5126,
      "count": 7424,
      "max": [
        16.613534927368164,
        4.494379043579102,
        -11.648436546325684
      ],
      "min": [
        -16.613548278808594,
        -19.814992904663086,
        -26.783769607543945
      ],
      "type": "VEC3"
    },
    {
      "bufferView": 5,
      "componentType": 5126,
      "count": 7424,
      "max": [
        0.9999693036079407,
        0.9999564290046692,
        0.9999870657920837
      ],
      "min": [
        -0.999970555305481,
        -0.9991010427474976,
        -0.9999245405197144
      ],
      "type": "VEC3"
    },
    {
      "bufferView": 6,
      "componentType": 5126,
      "count": 7424,
      "max": [
        1,
        1
      ],
      "min": [
        0,
        0.06417399644851685
      ],
      "type": "VEC2"
    },
    {
      "bufferView": 7,
      "componentType": 5123,
      "count": 42336,
      "max": [
        7423
      ],
      "min": [
        0
      ],
      "type": "SCALAR"
    },
    {
      "bufferView": 8,
      "componentType": 5126,
      "count": 1174,
      "max": [
        17.313159942626953,
        9.195716857910156,
        0.009815216064453125
      ],
      "min": [
        -18.556583404541016,
        -18.901935577392578,
        -26.86708641052246
      ],
      "type": "VEC3"
    },
    {
      "bufferView": 9,
      "componentType": 5126,
      "count": 1174,
      "max": [
        0.9989832043647766,
        0.9997787475585938,
        1
      ],
      "min": [
        -0.9989832043647766,
        -0.9996240735054016,
        -0.9999995827674866
      ],
      "type": "VEC3"
    },
    {
      "bufferView": 10,
      "componentType": 5126,
      "count": 1174,
      "max": [
        0.9781994819641113,
        1
      ],
      "min": [
        0,
        0
      ],
      "type": "VEC2"
    },
    {
      "bufferView": 11,
      "componentType": 5123,
      "count": 5544,
      "max": [
        1173
      ],
      "min": [
        0
      ],
      "type": "SCALAR"
    }
  ],
  "materials": [
    {
      "pbrMetallicRoughness": {
        "baseColorFactor": [
          0.07450980392156863,
          0.0784313725490196,
          0.09019607843137255,
          1
        ],
        "metallicFactor": 0.5,
        "roughnessFactor": 0.5
      }
    },
    {
      "pbrMetallicRoughness": {
        "metallicFactor": 0.5,
        "roughnessFactor": 0.5,
        "baseColorTexture": {
          "index": 0,
          "extensions": {
            "KHR_texture_transform": {
              "scale": [
                8,
                8
              ]
            }
          }
        }
      }
    },
    {
      "pbrMetallicRoughness": {
        "metallicFactor": 0.5,
        "roughnessFactor": 0.5,
        "baseColorTexture": {
          "index": 1,
          "extensions": {
            "KHR_texture_transform": {
              "scale": [
                2,
                2
              ]
            }
          }
        }
      }
    }
  ],
  "meshes": [
    {
      "primitives": [
        {
          "mode": 4,
          "attributes": {
            "POSITION": 0,
            "NORMAL": 1,
            "TEXCOORD_0": 2
          },
          "indices": 3,
          "material": 0
        }
      ]
    },
    {
      "primitives": [
        {
          "mode": 4,
          "attributes": {
            "POSITION": 4,
            "NORMAL": 5,
            "TEXCOORD_0": 6
          },
          "indices": 7,
          "material": 1
        }
      ]
    },
    {
      "primitives": [
        {
          "mode": 4,
          "attributes": {
            "POSITION": 8,
            "NORMAL": 9,
            "TEXCOORD_0": 10
          },
          "indices": 11,
          "material": 2
        }
      ]
    }
  ],
  "textures": [
    {
      "sampler": 0,
      "source": 0
    },
    {
      "sampler": 1,
      "source": 1
    }
  ],
  "samplers": [
    {
      "magFilter": 9729,
      "minFilter": 9987,
      "wrapS": 10497,
      "wrapT": 10497
    },
    {
      "magFilter": 9729,
      "minFilter": 9987,
      "wrapS": 10497,
      "wrapT": 10497
    }
  ],
  "images": [
    {
      "mimeType": "image/jpeg",
      "uri": "data:image/jpeg;base64,"
    },
    {
      "mimeType": "image/jpeg",
      "uri": "data:image/jpeg;base64,"
    }
  ],
  "extensionsUsed": [
    "KHR_lights_punctual",
    "KHR_texture_transform"
  ]
}